{"asset":{"version":"2.0","generator":"city-drive model generator"},"scene":0,"scenes":[{"nodes":[0]}],"nodes":[{"mesh":0,"name":"arched-apartment"}],"meshes":[{"name":"arched-apartment","primitives":[{"attributes":{"POSITION":0,"NORMAL":1},"material":0,"mode":4},{"attributes":{"POSITION":2,"NORMAL":3},"material":1,"mode":4},{"attributes":{"POSITION":4,"NORMAL":5},"material":2,"mode":4},{"attributes":{"POSITION":6,"NORMAL":7},"material":3,"mode":4}]}],"materials":[{"name":"wall","pbrMetallicRoughness":{"baseColorFactor":[0.6938717612856897,0.5711248294565854,0.4178850708380236,1],"metallicFactor":0,"roughnessFactor":0.9},"emissiveFactor":[0,0,0],"doubleSided":false},{"name":"stone","pbrMetallicRoughness":{"baseColorFactor":[0.4793201830913402,0.3813260114221238,0.26225065751888765,1],"metallicFactor":0,"roughnessFactor":0.9},"emissiveFactor":[0,0,0],"doubleSided":false},{"name":"roof","pbrMetallicRoughness":{"baseColorFactor":[0.04970656597728775,0.20507873637973145,0.26225065751888765,1],"metallicFactor":0,"roughnessFactor":0.65},"emissiveFactor":[0,0,0],"doubleSided":false},{"name":"glass","pbrMetallicRoughness":{"baseColorFactor":[0.34670405634441115,0.6866853124288864,0.8069522576650873,1],"metallicFactor":0,"roughnessFactor":0.2},"emissiveFactor":[0.0030352698352941175,0.018500220124016652,0.02955683443236377],"doubleSided":false}],"accessors":[{"bufferView":0,"componentType":5126,"count":1188,"type":"VEC3","min":[-4.199999809265137,-2.1431319258495947e-16,-3.5],"max":[4.199999809265137,8.199999809265137,3.5]},{"bufferView":1,"componentType":5126,"count":1188,"type":"VEC3"},{"bufferView":2,"componentType":5126,"count":3636,"type":"VEC3","min":[-4.400000095367432,0,3.180000066757202],"max":[4.400000095367432,5.960000038146973,4.400000095367432]},{"bufferView":3,"componentType":5126,"count":3636,"type":"VEC3"},{"bufferView":4,"componentType":5126,"count":36,"type":"VEC3","min":[-2.5999999046325684,8.199999809265137,-3.8499999046325684],"max":[1.4120860852688023e-15,17.30000114440918,3.8499999046325684]},{"bufferView":5,"componentType":5126,"count":36,"type":"VEC3"},{"bufferView":6,"componentType":5126,"count":288,"type":"VEC3","min":[-3.2750000953674316,3.9749999046325684,3.4100000858306885],"max":[3.2750000953674316,7.025000095367432,3.549999952316284]},{"bufferView":7,"componentType":5126,"count":288,"type":"VEC3"}],"bufferViews":[{"buffer":0,"byteOffset":0,"byteLength":14256},{"buffer":0,"byteOffset":14256,"byteLength":14256},{"buffer":0,"byteOffset":28512,"byteLength":43632},{"buffer":0,"byteOffset":72144,"byteLength":43632},{"buffer":0,"byteOffset":115776,"byteLength":432},{"buffer":0,"byteOffset":116208,"byteLength":432},{"buffer":0,"byteOffset":116640,"byteLength":3456},{"buffer":0,"byteOffset":120096,"byteLength":3456}],"buffers":[{"byteLength":123552,"uri":"data:application/octet-stream;base64,"}]}