{"asset":{"version":"2.0","generator":"city-drive model generator"},"scene":0,"scenes":[{"nodes":[0]}],"nodes":[{"mesh":0,"name":"crane"}],"meshes":[{"name":"crane","primitives":[{"attributes":{"POSITION":0,"NORMAL":1},"material":0,"mode":4},{"attributes":{"POSITION":2,"NORMAL":3},"material":1,"mode":4}]}],"materials":[{"name":"steel","pbrMetallicRoughness":{"baseColorFactor":[0.6938717612856897,0.35640014413537763,0.024157632443547246,1],"metallicFactor":0.5,"roughnessFactor":0.55},"emissiveFactor":[0,0,0],"doubleSided":false},{"name":"dark","pbrMetallicRoughness":{"baseColorFactor":[0.04373502925049377,0.05126945836711539,0.061246054224174035,1],"metallicFactor":0.4,"roughnessFactor":0.6},"emissiveFactor":[0,0,0],"doubleSided":false}],"accessors":[{"bufferView":0,"componentType":5126,"count":828,"type":"VEC3","min":[-7,0.6000000238418579,-2.967334270477295],"max":[13.5,22.02626609802246,2.967334270477295]},{"bufferView":1,"componentType":5126,"count":828,"type":"VEC3"},{"bufferView":2,"componentType":5126,"count":144,"type":"VEC3","min":[-7.199999809265137,-1.1920929132713809e-8,-1.7000000476837158],"max":[10.0600004196167,14.899999618530273,1.7000000476837158]},{"bufferView":3,"componentType":5126,"count":144,"type":"VEC3"}],"bufferViews":[{"buffer":0,"byteOffset":0,"byteLength":9936},{"buffer":0,"byteOffset":9936,"byteLength":9936},{"buffer":0,"byteOffset":19872,"byteLength":1728},{"buffer":0,"byteOffset":21600,"byteLength":1728}],"buffers":[{"byteLength":23328,"uri":"data:application/octet-stream;base64,"}]}