{"asset":{"version":"2.0","generator":"city-drive model generator"},"scene":0,"scenes":[{"nodes":[0]}],"nodes":[{"mesh":0,"name":"dome-landmark"}],"meshes":[{"name":"dome-landmark","primitives":[{"attributes":{"POSITION":0,"NORMAL":1},"material":0,"mode":4},{"attributes":{"POSITION":2,"NORMAL":3},"material":1,"mode":4},{"attributes":{"POSITION":4,"NORMAL":5},"material":2,"mode":4},{"attributes":{"POSITION":6,"NORMAL":7},"material":3,"mode":4}]}],"materials":[{"name":"stone","pbrMetallicRoughness":{"baseColorFactor":[0.8148465722120952,0.76052450467022,0.6307571363387763,1],"metallicFactor":0,"roughnessFactor":0.9},"emissiveFactor":[0,0,0],"doubleSided":false},{"name":"trim","pbrMetallicRoughness":{"baseColorFactor":[0.623960391667596,0.5647115056965487,0.43415363616478553,1],"metallicFactor":0,"roughnessFactor":0.9},"emissiveFactor":[0,0,0],"doubleSided":false},{"name":"roof","pbrMetallicRoughness":{"baseColorFactor":[0.04970656597728775,0.20507873637973145,0.26225065751888765,1],"metallicFactor":0.15,"roughnessFactor":0.6},"emissiveFactor":[0,0,0],"doubleSided":false},{"name":"gold","pbrMetallicRoughness":{"baseColorFactor":[0.8713671191959567,0.5271151256969157,0.06847816983662762,1],"metallicFactor":0.8,"roughnessFactor":0.35},"emissiveFactor":[0,0,0],"doubleSided":false}],"accessors":[{"bufferView":0,"componentType":5126,"count":1248,"type":"VEC3","min":[-9,0.550000011920929,-9],"max":[9,15.100000381469727,9]},{"bufferView":1,"componentType":5126,"count":1248,"type":"VEC3"},{"bufferView":2,"componentType":5126,"count":5520,"type":"VEC3","min":[-9.899999618530273,5.9604645663569045e-9,-9.899999618530273],"max":[9.899999618530273,7.449999809265137,9.899999618530273]},{"bufferView":3,"componentType":5126,"count":5520,"type":"VEC3"},{"bufferView":4,"componentType":5126,"count":6264,"type":"VEC3","min":[-7.199999809265137,7.400000095367432,-7.199999809265137],"max":[7.199999809265137,16.600000381469727,7.199999809265137]},{"bufferView":5,"componentType":5126,"count":6264,"type":"VEC3"},{"bufferView":6,"componentType":5126,"count":756,"type":"VEC3","min":[-0.41999998688697815,16.479999542236328,-0.40946972370147705],"max":[0.41999998688697815,17.31999969482422,0.40946972370147705]},{"bufferView":7,"componentType":5126,"count":756,"type":"VEC3"}],"bufferViews":[{"buffer":0,"byteOffset":0,"byteLength":14976},{"buffer":0,"byteOffset":14976,"byteLength":14976},{"buffer":0,"byteOffset":29952,"byteLength":66240},{"buffer":0,"byteOffset":96192,"byteLength":66240},{"buffer":0,"byteOffset":162432,"byteLength":75168},{"buffer":0,"byteOffset":237600,"byteLength":75168},{"buffer":0,"byteOffset":312768,"byteLength":9072},{"buffer":0,"byteOffset":321840,"byteLength":9072}],"buffers":[{"byteLength":330912,"uri":"data:application/octet-stream;base64,"}]}