{"asset":{"version":"2.0","generator":"city-drive model generator"},"scene":0,"scenes":[{"nodes":[0]}],"nodes":[{"mesh":0,"name":"gas-station"}],"meshes":[{"name":"gas-station","primitives":[{"attributes":{"POSITION":0,"NORMAL":1},"material":0,"mode":4},{"attributes":{"POSITION":2,"NORMAL":3},"material":1,"mode":4},{"attributes":{"POSITION":4,"NORMAL":5},"material":2,"mode":4},{"attributes":{"POSITION":6,"NORMAL":7},"material":3,"mode":4},{"attributes":{"POSITION":8,"NORMAL":9},"material":4,"mode":4},{"attributes":{"POSITION":10,"NORMAL":11},"material":5,"mode":4}]}],"materials":[{"name":"canopy","pbrMetallicRoughness":{"baseColorFactor":[0.6938717612856897,0.07818742179702069,0.04666508633021928,1],"metallicFactor":0.1,"roughnessFactor":0.7},"emissiveFactor":[0,0,0],"doubleSided":false},{"name":"column","pbrMetallicRoughness":{"baseColorFactor":[0.623960391667596,0.5840784178830671,0.508881320845802,1],"metallicFactor":0,"roughnessFactor":0.85},"emissiveFactor":[0,0,0],"doubleSided":false},{"name":"shop","pbrMetallicRoughness":{"baseColorFactor":[0.7912979403281551,0.7156935005005721,0.5647115056965487,1],"metallicFactor":0,"roughnessFactor":0.9},"emissiveFactor":[0,0,0],"doubleSided":false},{"name":"glass","pbrMetallicRoughness":{"baseColorFactor":[0.34670405634441115,0.6866853124288864,0.8069522576650873,1],"metallicFactor":0.1,"roughnessFactor":0.18},"emissiveFactor":[0.0030352698352941175,0.018500220124016652,0.02955683443236377],"doubleSided":false},{"name":"pump","pbrMetallicRoughness":{"baseColorFactor":[0.06847816983662762,0.09084171117479915,0.11697066774917994,1],"metallicFactor":0.3,"roughnessFactor":0.6},"emissiveFactor":[0,0,0],"doubleSided":false},{"name":"trim","pbrMetallicRoughness":{"baseColorFactor":[0.8879231178794776,0.5332764040016892,0.07618538147321911,1],"metallicFactor":0,"roughnessFactor":0.6},"emissiveFactor":[0,0,0],"doubleSided":false}],"accessors":[{"bufferView":0,"componentType":5126,"count":36,"type":"VEC3","min":[-5.5,4.324999809265137,-2],"max":[5.5,4.875,5]},{"bufferView":1,"componentType":5126,"count":36,"type":"VEC3"},{"bufferView":2,"componentType":5126,"count":144,"type":"VEC3","min":[-4.650000095367432,-4.7683716530855236e-8,-1.649999976158142],"max":[4.650000095367432,4.400000095367432,4.650000095367432]},{"bufferView":3,"componentType":5126,"count":144,"type":"VEC3"},{"bufferView":4,"componentType":5126,"count":36,"type":"VEC3","min":[-4.5,-4.7683716530855236e-8,-7],"max":[4.5,3.4000000953674316,-3]},{"bufferView":5,"componentType":5126,"count":36,"type":"VEC3"},{"bufferView":6,"componentType":5126,"count":36,"type":"VEC3","min":[-3.799999952316284,0.9000000357627869,-3.0199999809265137],"max":[3.799999952316284,2.700000047683716,-2.9000000953674316]},{"bufferView":7,"componentType":5126,"count":36,"type":"VEC3"},{"bufferView":8,"componentType":5126,"count":72,"type":"VEC3","min":[-2.6500000953674316,0,0.699999988079071],"max":[2.6500000953674316,1.5,2.299999952316284]},{"bufferView":9,"componentType":5126,"count":72,"type":"VEC3"},{"bufferView":10,"componentType":5126,"count":144,"type":"VEC3","min":[-5.650000095367432,1.4900000095367432,-7.199999809265137],"max":[5.650000095367432,4.409999847412109,5.150000095367432]},{"bufferView":11,"componentType":5126,"count":144,"type":"VEC3"}],"bufferViews":[{"buffer":0,"byteOffset":0,"byteLength":432},{"buffer":0,"byteOffset":432,"byteLength":432},{"buffer":0,"byteOffset":864,"byteLength":1728},{"buffer":0,"byteOffset":2592,"byteLength":1728},{"buffer":0,"byteOffset":4320,"byteLength":432},{"buffer":0,"byteOffset":4752,"byteLength":432},{"buffer":0,"byteOffset":5184,"byteLength":432},{"buffer":0,"byteOffset":5616,"byteLength":432},{"buffer":0,"byteOffset":6048,"byteLength":864},{"buffer":0,"byteOffset":6912,"byteLength":864},{"buffer":0,"byteOffset":7776,"byteLength":1728},{"buffer":0,"byteOffset":9504,"byteLength":1728}],"buffers":[{"byteLength":11232,"uri":"data:application/octet-stream;base64,"}]}