{"asset":{"version":"2.0","generator":"city-drive model generator"},"scene":0,"scenes":[{"nodes":[0]}],"nodes":[{"mesh":0,"name":"round-shop"}],"meshes":[{"name":"round-shop","primitives":[{"attributes":{"POSITION":0,"NORMAL":1},"material":0,"mode":4},{"attributes":{"POSITION":2,"NORMAL":3},"material":1,"mode":4},{"attributes":{"POSITION":4,"NORMAL":5},"material":2,"mode":4},{"attributes":{"POSITION":6,"NORMAL":7},"material":3,"mode":4}]}],"materials":[{"name":"wall","pbrMetallicRoughness":{"baseColorFactor":[0.8713671191959567,0.775822218312646,0.6307571363387763,1],"metallicFactor":0,"roughnessFactor":0.9},"emissiveFactor":[0,0,0],"doubleSided":false},{"name":"roof","pbrMetallicRoughness":{"baseColorFactor":[0.5271151256969157,0.09305896283800832,0.04970656597728775,1],"metallicFactor":0,"roughnessFactor":0.7},"emissiveFactor":[0,0,0],"doubleSided":false},{"name":"trim","pbrMetallicRoughness":{"baseColorFactor":[0.10224173307914941,0.14702726648767014,0.19461783043107173,1],"metallicFactor":0,"roughnessFactor":0.7},"emissiveFactor":[0,0,0],"doubleSided":false},{"name":"glass","pbrMetallicRoughness":{"baseColorFactor":[0.34670405634441115,0.6866853124288864,0.8069522576650873,1],"metallicFactor":0.1,"roughnessFactor":0.15},"emissiveFactor":[0.0030352698352941175,0.018500220124016652,0.02955683443236377],"doubleSided":false}],"accessors":[{"bufferView":0,"componentType":5126,"count":1596,"type":"VEC3","min":[-3.5999999046325684,-1.8369701465288538e-16,-3],"max":[3.5999999046325684,3.4000000953674316,3.075000047683716]},{"bufferView":1,"componentType":5126,"count":1596,"type":"VEC3"},{"bufferView":2,"componentType":5126,"count":1188,"type":"VEC3","min":[-3.950000047683716,3.4000000953674316,-3.3499999046325684],"max":[3.950000047683716,3.799999952316284,3.3499999046325684]},{"bufferView":3,"componentType":5126,"count":1188,"type":"VEC3"},{"bufferView":4,"componentType":5126,"count":1296,"type":"VEC3","min":[-4.050000190734863,2.950000047683716,-3.450000047683716],"max":[4.050000190734863,4.5,4.900000095367432]},{"bufferView":5,"componentType":5126,"count":1296,"type":"VEC3"},{"bufferView":6,"componentType":5126,"count":288,"type":"VEC3","min":[-3.640000104904175,0.699999988079071,-2.049999952316284],"max":[3.640000104904175,2.4000000953674316,3.0399999618530273]},{"bufferView":7,"componentType":5126,"count":288,"type":"VEC3"}],"bufferViews":[{"buffer":0,"byteOffset":0,"byteLength":19152},{"buffer":0,"byteOffset":19152,"byteLength":19152},{"buffer":0,"byteOffset":38304,"byteLength":14256},{"buffer":0,"byteOffset":52560,"byteLength":14256},{"buffer":0,"byteOffset":66816,"byteLength":15552},{"buffer":0,"byteOffset":82368,"byteLength":15552},{"buffer":0,"byteOffset":97920,"byteLength":3456},{"buffer":0,"byteOffset":101376,"byteLength":3456}],"buffers":[{"byteLength":104832,"uri":"data:application/octet-stream;base64,"}]}