{"asset":{"version":"2.0","generator":"city-drive model generator"},"scene":0,"scenes":[{"nodes":[0]}],"nodes":[{"mesh":0,"name":"spiral-tower"}],"meshes":[{"name":"spiral-tower","primitives":[{"attributes":{"POSITION":0,"NORMAL":1},"material":0,"mode":4},{"attributes":{"POSITION":2,"NORMAL":3},"material":1,"mode":4},{"attributes":{"POSITION":4,"NORMAL":5},"material":2,"mode":4},{"attributes":{"POSITION":6,"NORMAL":7},"material":3,"mode":4}]}],"materials":[{"name":"concrete","pbrMetallicRoughness":{"baseColorFactor":[0.7156935005005721,0.6795424696265424,0.6104955708001716,1],"metallicFactor":0,"roughnessFactor":0.92},"emissiveFactor":[0,0,0],"doubleSided":true},{"name":"ramp","pbrMetallicRoughness":{"baseColorFactor":[0.48514994004665124,0.5271151256969157,0.5711248294565854,1],"metallicFactor":0,"roughnessFactor":0.8},"emissiveFactor":[0,0,0],"doubleSided":true},{"name":"roof","pbrMetallicRoughness":{"baseColorFactor":[0.5271151256969157,0.09305896283800832,0.04970656597728775,1],"metallicFactor":0.2,"roughnessFactor":0.55},"emissiveFactor":[0,0,0],"doubleSided":true},{"name":"glow","pbrMetallicRoughness":{"baseColorFactor":[1,0.8713671191959567,0.4793201830913402,1],"metallicFactor":0,"roughnessFactor":0.4},"emissiveFactor":[1,0.7454042095350284,0.2541520943200296],"doubleSided":true}],"accessors":[{"bufferView":0,"componentType":5126,"count":672,"type":"VEC3","min":[-3.4000000953674316,0,-3.4000000953674316],"max":[3.4000000953674316,19.5,3.4000000953674316]},{"bufferView":1,"componentType":5126,"count":672,"type":"VEC3"},{"bufferView":2,"componentType":5126,"count":3600,"type":"VEC3","min":[3.25,1.3200000524520874,0],"max":[3.25,1.3200000524520874,0]},{"bufferView":3,"componentType":5126,"count":3600,"type":"VEC3"},{"bufferView":4,"componentType":5126,"count":336,"type":"VEC3","min":[-3.9000000953674316,19.5,-3.9000000953674316],"max":[3.9000000953674316,20.100000381469727,3.9000000953674316]},{"bufferView":5,"componentType":5126,"count":336,"type":"VEC3"},{"bufferView":6,"componentType":5126,"count":756,"type":"VEC3","min":[-0.5,19.899999618530273,-0.48746395111083984],"max":[0.5,20.899999618530273,0.48746395111083984]},{"bufferView":7,"componentType":5126,"count":756,"type":"VEC3"}],"bufferViews":[{"buffer":0,"byteOffset":0,"byteLength":8064},{"buffer":0,"byteOffset":8064,"byteLength":8064},{"buffer":0,"byteOffset":16128,"byteLength":43200},{"buffer":0,"byteOffset":59328,"byteLength":43200},{"buffer":0,"byteOffset":102528,"byteLength":4032},{"buffer":0,"byteOffset":106560,"byteLength":4032},{"buffer":0,"byteOffset":110592,"byteLength":9072},{"buffer":0,"byteOffset":119664,"byteLength":9072}],"buffers":[{"byteLength":128736,"uri":"data:application/octet-stream;base64,"}]}