{"asset":{"version":"2.0","generator":"city-drive model generator"},"scene":0,"scenes":[{"nodes":[0]}],"nodes":[{"mesh":0,"name":"tree"}],"meshes":[{"name":"tree","primitives":[{"attributes":{"POSITION":0,"NORMAL":1},"material":0,"mode":4},{"attributes":{"POSITION":2,"NORMAL":3},"material":1,"mode":4},{"attributes":{"POSITION":4,"NORMAL":5},"material":2,"mode":4}]}],"materials":[{"name":"bark","pbrMetallicRoughness":{"baseColorFactor":[0.14702726648767014,0.07818742179702069,0.04231141061442144,1],"metallicFactor":0,"roughnessFactor":1},"emissiveFactor":[0,0,0],"doubleSided":false},{"name":"leaf","pbrMetallicRoughness":{"baseColorFactor":[0.11443537381770343,0.3813260114221238,0.08650046202808521,1],"metallicFactor":0,"roughnessFactor":0.95},"emissiveFactor":[0,0,0],"doubleSided":false},{"name":"leaf2","pbrMetallicRoughness":{"baseColorFactor":[0.04970656597728775,0.19461783043107173,0.04231141061442144,1],"metallicFactor":0,"roughnessFactor":0.95},"emissiveFactor":[0,0,0],"doubleSided":false}],"accessors":[{"bufferView":0,"componentType":5126,"count":96,"type":"VEC3","min":[-0.23999999463558197,0,-0.23999999463558197],"max":[0.23999999463558197,1.5,0.23999999463558197]},{"bufferView":1,"componentType":5126,"count":96,"type":"VEC3"},{"bufferView":2,"componentType":5126,"count":1152,"type":"VEC3","min":[-1.2878462076187134,1.2000000476837158,-1.0878461599349976],"max":[1.485567331314087,3.6500000953674316,1.2855674028396606]},{"bufferView":3,"componentType":5126,"count":1152,"type":"VEC3"},{"bufferView":4,"componentType":5126,"count":756,"type":"VEC3","min":[-1.25,1.25,-1.2186598777770996],"max":[1.25,3.75,1.2186598777770996]},{"bufferView":5,"componentType":5126,"count":756,"type":"VEC3"}],"bufferViews":[{"buffer":0,"byteOffset":0,"byteLength":1152},{"buffer":0,"byteOffset":1152,"byteLength":1152},{"buffer":0,"byteOffset":2304,"byteLength":13824},{"buffer":0,"byteOffset":16128,"byteLength":13824},{"buffer":0,"byteOffset":29952,"byteLength":9072},{"buffer":0,"byteOffset":39024,"byteLength":9072}],"buffers":[{"byteLength":48096,"uri":"data:application/octet-stream;base64,"}]}