{"asset":{"version":"2.0","generator":"city-drive model generator"},"scene":0,"scenes":[{"nodes":[0]}],"nodes":[{"mesh":0,"name":"bin"}],"meshes":[{"name":"bin","primitives":[{"attributes":{"POSITION":0,"NORMAL":1},"material":0,"mode":4},{"attributes":{"POSITION":2,"NORMAL":3},"material":1,"mode":4}]}],"materials":[{"name":"body","pbrMetallicRoughness":{"baseColorFactor":[0.06847816983662762,0.09084171117479915,0.11697066774917994,1],"metallicFactor":0.2,"roughnessFactor":0.85},"emissiveFactor":[0,0,0],"doubleSided":false},{"name":"lid","pbrMetallicRoughness":{"baseColorFactor":[0.028426039499072558,0.036889450395083165,0.04666508633021928,1],"metallicFactor":0.25,"roughnessFactor":0.8},"emissiveFactor":[0,0,0],"doubleSided":false}],"accessors":[{"bufferView":0,"componentType":5126,"count":192,"type":"VEC3","min":[-0.3400000035762787,1.1920929132713809e-8,-0.3400000035762787],"max":[0.3400000035762787,0.8999999761581421,0.3400000035762787]},{"bufferView":1,"componentType":5126,"count":192,"type":"VEC3"},{"bufferView":2,"componentType":5126,"count":696,"type":"VEC3","min":[-0.3700000047683716,0.8400000333786011,-0.3700000047683716],"max":[0.3700000047683716,1.159999966621399,0.3700000047683716]},{"bufferView":3,"componentType":5126,"count":696,"type":"VEC3"}],"bufferViews":[{"buffer":0,"byteOffset":0,"byteLength":2304},{"buffer":0,"byteOffset":2304,"byteLength":2304},{"buffer":0,"byteOffset":4608,"byteLength":8352},{"buffer":0,"byteOffset":12960,"byteLength":8352}],"buffers":[{"byteLength":21312,"uri":"data:application/octet-stream;base64,"}]}