{"asset":{"version":"2.0","generator":"city-drive model generator"},"scene":0,"scenes":[{"nodes":[0]}],"nodes":[{"mesh":0,"name":"curved-hall"}],"meshes":[{"name":"curved-hall","primitives":[{"attributes":{"POSITION":0,"NORMAL":1},"material":0,"mode":4},{"attributes":{"POSITION":2,"NORMAL":3},"material":1,"mode":4},{"attributes":{"POSITION":4,"NORMAL":5},"material":2,"mode":4}]}],"materials":[{"name":"wall","pbrMetallicRoughness":{"baseColorFactor":[0.7912979403281551,0.7156935005005721,0.5775804404214573,1],"metallicFactor":0,"roughnessFactor":0.9},"emissiveFactor":[0,0,0],"doubleSided":true},{"name":"roof","pbrMetallicRoughness":{"baseColorFactor":[0.158960835050774,0.2746773120495699,0.14412847084818123,1],"metallicFactor":0.25,"roughnessFactor":0.6},"emissiveFactor":[0,0,0],"doubleSided":true},{"name":"stone","pbrMetallicRoughness":{"baseColorFactor":[0.5394794890033748,0.45641102317066595,0.3231432091022285,1],"metallicFactor":0,"roughnessFactor":0.9},"emissiveFactor":[0,0,0],"doubleSided":true}],"accessors":[{"bufferView":0,"componentType":5126,"count":36,"type":"VEC3","min":[-3.5,0,-5],"max":[3.5,3,5]},{"bufferView":1,"componentType":5126,"count":36,"type":"VEC3"},{"bufferView":2,"componentType":5126,"count":480,"type":"VEC3","min":[-3.5,3,-5],"max":[3.5,6.5,5]},{"bufferView":3,"componentType":5126,"count":480,"type":"VEC3"},{"bufferView":4,"componentType":5126,"count":852,"type":"VEC3","min":[-3.799999952316284,0,-5.349999904632568],"max":[3.799999952316284,5.929999828338623,5.349999904632568]},{"bufferView":5,"componentType":5126,"count":852,"type":"VEC3"}],"bufferViews":[{"buffer":0,"byteOffset":0,"byteLength":432},{"buffer":0,"byteOffset":432,"byteLength":432},{"buffer":0,"byteOffset":864,"byteLength":5760},{"buffer":0,"byteOffset":6624,"byteLength":5760},{"buffer":0,"byteOffset":12384,"byteLength":10224},{"buffer":0,"byteOffset":22608,"byteLength":10224}],"buffers":[{"byteLength":32832,"uri":"data:application/octet-stream;base64,"}]}