{"asset":{"version":"2.0","generator":"city-drive model generator"},"scene":0,"scenes":[{"nodes":[0]}],"nodes":[{"mesh":0,"name":"diner"}],"meshes":[{"name":"diner","primitives":[{"attributes":{"POSITION":0,"NORMAL":1},"material":0,"mode":4},{"attributes":{"POSITION":2,"NORMAL":3},"material":1,"mode":4},{"attributes":{"POSITION":4,"NORMAL":5},"material":2,"mode":4},{"attributes":{"POSITION":6,"NORMAL":7},"material":3,"mode":4},{"attributes":{"POSITION":8,"NORMAL":9},"material":4,"mode":4}]}],"materials":[{"name":"wall","pbrMetallicRoughness":{"baseColorFactor":[0.7379104087672317,0.7681511472425809,0.7912979403281551,1],"metallicFactor":0,"roughnessFactor":0.85},"emissiveFactor":[0,0,0],"doubleSided":false},{"name":"trim","pbrMetallicRoughness":{"baseColorFactor":[0.6866853124288864,0.059511238155621766,0.04231141061442144,1],"metallicFactor":0,"roughnessFactor":0.6},"emissiveFactor":[0,0,0],"doubleSided":false},{"name":"glass","pbrMetallicRoughness":{"baseColorFactor":[0.4793201830913402,0.775822218312646,0.8713671191959567,1],"metallicFactor":0,"roughnessFactor":0.15},"emissiveFactor":[0.0069954101845983935,0.0343398068028541,0.04970656597728775],"doubleSided":false},{"name":"roof","pbrMetallicRoughness":{"baseColorFactor":[0.10461648408208657,0.11697066774917994,0.13843161502267545,1],"metallicFactor":0,"roughnessFactor":0.8},"emissiveFactor":[0,0,0],"doubleSided":false},{"name":"sign","pbrMetallicRoughness":{"baseColorFactor":[0.8879231178794776,0.5332764040016892,0.07618538147321911,1],"metallicFactor":0,"roughnessFactor":0.4},"emissiveFactor":[0.06847816983662762,0.0343398068028541,0.0018211619011764706],"doubleSided":false}],"accessors":[{"bufferView":0,"componentType":5126,"count":36,"type":"VEC3","min":[-5.5,4.7683716530855236e-8,-3.25],"max":[5.5,3.5999999046325684,3.25]},{"bufferView":1,"componentType":5126,"count":36,"type":"VEC3"},{"bufferView":2,"componentType":5126,"count":72,"type":"VEC3","min":[-6.300000190734863,3.299999952316284,2.125],"max":[6.300000190734863,6,3.799999952316284]},{"bufferView":3,"componentType":5126,"count":72,"type":"VEC3"},{"bufferView":4,"componentType":5126,"count":108,"type":"VEC3","min":[-5.539999961853027,0.949999988079071,-2.549999952316284],"max":[5.539999961853027,2.8499999046325684,3.3399999141693115]},{"bufferView":5,"componentType":5126,"count":108,"type":"VEC3"},{"bufferView":6,"componentType":5126,"count":36,"type":"VEC3","min":[-6.099999904632568,3.6050000190734863,-3.8499999046325684],"max":[6.099999904632568,3.9549999237060547,3.8499999046325684]},{"bufferView":7,"componentType":5126,"count":36,"type":"VEC3"},{"bufferView":8,"componentType":5126,"count":36,"type":"VEC3","min":[-6.599999904632568,5.550000190734863,2.125],"max":[-2.4000000953674316,6.849999904632568,2.375]},{"bufferView":9,"componentType":5126,"count":36,"type":"VEC3"}],"bufferViews":[{"buffer":0,"byteOffset":0,"byteLength":432},{"buffer":0,"byteOffset":432,"byteLength":432},{"buffer":0,"byteOffset":864,"byteLength":864},{"buffer":0,"byteOffset":1728,"byteLength":864},{"buffer":0,"byteOffset":2592,"byteLength":1296},{"buffer":0,"byteOffset":3888,"byteLength":1296},{"buffer":0,"byteOffset":5184,"byteLength":432},{"buffer":0,"byteOffset":5616,"byteLength":432},{"buffer":0,"byteOffset":6048,"byteLength":432},{"buffer":0,"byteOffset":6480,"byteLength":432}],"buffers":[{"byteLength":6912,"uri":"data:application/octet-stream;base64,"}]}