{"asset":{"version":"2.0","generator":"city-drive model generator"},"scene":0,"scenes":[{"nodes":[0]}],"nodes":[{"mesh":0,"name":"house"}],"meshes":[{"name":"house","primitives":[{"attributes":{"POSITION":0,"NORMAL":1},"material":0,"mode":4},{"attributes":{"POSITION":2,"NORMAL":3},"material":1,"mode":4},{"attributes":{"POSITION":4,"NORMAL":5},"material":2,"mode":4},{"attributes":{"POSITION":6,"NORMAL":7},"material":3,"mode":4},{"attributes":{"POSITION":8,"NORMAL":9},"material":4,"mode":4},{"attributes":{"POSITION":10,"NORMAL":11},"material":5,"mode":4}]}],"materials":[{"name":"wall","pbrMetallicRoughness":{"baseColorFactor":[0.8069522576650873,0.7156935005005721,0.55201140150344,1],"metallicFactor":0,"roughnessFactor":0.92},"emissiveFactor":[0,0,0],"doubleSided":false},{"name":"brick","pbrMetallicRoughness":{"baseColorFactor":[0.3967552307153359,0.11953842797895521,0.04970656597728775,1],"metallicFactor":0,"roughnessFactor":0.95},"emissiveFactor":[0,0,0],"doubleSided":false},{"name":"roof","pbrMetallicRoughness":{"baseColorFactor":[0.26225065751888765,0.06847816983662762,0.04231141061442144,1],"metallicFactor":0,"roughnessFactor":0.85},"emissiveFactor":[0,0,0],"doubleSided":false},{"name":"trim","pbrMetallicRoughness":{"baseColorFactor":[0.9046611743890203,0.8631572134510892,0.775822218312646,1],"metallicFactor":0,"roughnessFactor":0.85},"emissiveFactor":[0,0,0],"doubleSided":false},{"name":"glass","pbrMetallicRoughness":{"baseColorFactor":[0.34670405634441115,0.6866853124288864,0.8069522576650873,1],"metallicFactor":0,"roughnessFactor":0.2},"emissiveFactor":[0.0030352698352941175,0.018500220124016652,0.02955683443236377],"doubleSided":false},{"name":"door","pbrMetallicRoughness":{"baseColorFactor":[0.10224173307914941,0.04231141061442144,0.019382360952473074,1],"metallicFactor":0,"roughnessFactor":0.8},"emissiveFactor":[0,0,0],"doubleSided":false}],"accessors":[{"bufferView":0,"componentType":5126,"count":84,"type":"VEC3","min":[-3.200000047683716,0,-2.700000047683716],"max":[3.3499999046325684,3.549999952316284,2.700000047683716]},{"bufferView":1,"componentType":5126,"count":84,"type":"VEC3"},{"bufferView":2,"componentType":5126,"count":72,"type":"VEC3","min":[-3.3499999046325684,0,-2.8499999046325684],"max":[3.3499999046325684,4.599999904632568,2.8499999046325684]},{"bufferView":3,"componentType":5126,"count":72,"type":"VEC3"},{"bufferView":4,"componentType":5126,"count":72,"type":"VEC3","min":[-3.549999952316284,2.8922135829925537,-2.721956491470337],"max":[3.549999952316284,3.6577863693237305,2.721956491470337]},{"bufferView":5,"componentType":5126,"count":72,"type":"VEC3"},{"bufferView":6,"componentType":5126,"count":72,"type":"VEC3","min":[-2.6500000953674316,1.100000023841858,2.6600000858306885],"max":[2.6500000953674316,1.2000000476837158,2.799999952316284]},{"bufferView":7,"componentType":5126,"count":72,"type":"VEC3"},{"bufferView":8,"componentType":5126,"count":144,"type":"VEC3","min":[-2.549999952316284,1.2000000476837158,-1.9500000476837158],"max":[3.2699999809265137,2.200000047683716,2.7699999809265137]},{"bufferView":9,"componentType":5126,"count":144,"type":"VEC3"},{"bufferView":10,"componentType":5126,"count":36,"type":"VEC3","min":[-0.5,0,2.6600000858306885],"max":[0.5,2,2.7799999713897705]},{"bufferView":11,"componentType":5126,"count":36,"type":"VEC3"}],"bufferViews":[{"buffer":0,"byteOffset":0,"byteLength":1008},{"buffer":0,"byteOffset":1008,"byteLength":1008},{"buffer":0,"byteOffset":2016,"byteLength":864},{"buffer":0,"byteOffset":2880,"byteLength":864},{"buffer":0,"byteOffset":3744,"byteLength":864},{"buffer":0,"byteOffset":4608,"byteLength":864},{"buffer":0,"byteOffset":5472,"byteLength":864},{"buffer":0,"byteOffset":6336,"byteLength":864},{"buffer":0,"byteOffset":7200,"byteLength":1728},{"buffer":0,"byteOffset":8928,"byteLength":1728},{"buffer":0,"byteOffset":10656,"byteLength":432},{"buffer":0,"byteOffset":11088,"byteLength":432}],"buffers":[{"byteLength":11520,"uri":"data:application/octet-stream;base64,"}]}