{"asset":{"version":"2.0","generator":"city-drive model generator"},"scene":0,"scenes":[{"nodes":[0]}],"nodes":[{"mesh":0,"name":"hydrant"}],"meshes":[{"name":"hydrant","primitives":[{"attributes":{"POSITION":0,"NORMAL":1},"material":0,"mode":4},{"attributes":{"POSITION":2,"NORMAL":3},"material":1,"mode":4}]}],"materials":[{"name":"red","pbrMetallicRoughness":{"baseColorFactor":[0.5271151256969157,0.040915196900556984,0.024157632443547246,1],"metallicFactor":0.15,"roughnessFactor":0.6},"emissiveFactor":[0,0,0],"doubleSided":false},{"name":"cap","pbrMetallicRoughness":{"baseColorFactor":[0.775822218312646,0.43415363616478553,0.06847816983662762,1],"metallicFactor":0.4,"roughnessFactor":0.5},"emissiveFactor":[0,0,0],"doubleSided":false}],"accessors":[{"bufferView":0,"componentType":5126,"count":1044,"type":"VEC3","min":[-0.3400000035762787,1.7881393032936899e-9,-0.3400000035762787],"max":[0.3400000035762787,1.0099999904632568,0.3400000035762787]},{"bufferView":1,"componentType":5126,"count":1044,"type":"VEC3"},{"bufferView":2,"componentType":5126,"count":480,"type":"VEC3","min":[-0.30000001192092896,0.4644049108028412,-0.09000000357627869],"max":[0.30000001192092896,1.0099999904632568,0.3100000023841858]},{"bufferView":3,"componentType":5126,"count":480,"type":"VEC3"}],"bufferViews":[{"buffer":0,"byteOffset":0,"byteLength":12528},{"buffer":0,"byteOffset":12528,"byteLength":12528},{"buffer":0,"byteOffset":25056,"byteLength":5760},{"buffer":0,"byteOffset":30816,"byteLength":5760}],"buffers":[{"byteLength":36576,"uri":"data:application/octet-stream;base64,"}]}