{"asset":{"version":"2.0","generator":"city-drive model generator"},"scene":0,"scenes":[{"nodes":[0]}],"nodes":[{"mesh":0,"name":"lamp"}],"meshes":[{"name":"lamp","primitives":[{"attributes":{"POSITION":0,"NORMAL":1},"material":0,"mode":4},{"attributes":{"POSITION":2,"NORMAL":3},"material":1,"mode":4}]}],"materials":[{"name":"post","pbrMetallicRoughness":{"baseColorFactor":[0.040915196900556984,0.054480276435339814,0.0722718506743852,1],"metallicFactor":0.35,"roughnessFactor":0.7},"emissiveFactor":[0,0,0],"doubleSided":false},{"name":"glow","pbrMetallicRoughness":{"baseColorFactor":[1,0.9046611743890203,0.6038273388475408,1],"metallicFactor":0,"roughnessFactor":0.35},"emissiveFactor":[1,0.7379104087672317,0.2541520943200296],"doubleSided":false}],"accessors":[{"bufferView":0,"componentType":5126,"count":1080,"type":"VEC3","min":[-0.30000001192092896,-4.7683716530855236e-8,-0.3400000035762787],"max":[1.940000057220459,4.289999961853027,0.3400000035762787]},{"bufferView":1,"componentType":5126,"count":1080,"type":"VEC3"},{"bufferView":2,"componentType":5126,"count":756,"type":"VEC3","min":[1.2999999523162842,2.8499999046325684,-0.29247838258743286],"max":[1.899999976158142,3.450000047683716,0.29247838258743286]},{"bufferView":3,"componentType":5126,"count":756,"type":"VEC3"}],"bufferViews":[{"buffer":0,"byteOffset":0,"byteLength":12960},{"buffer":0,"byteOffset":12960,"byteLength":12960},{"buffer":0,"byteOffset":25920,"byteLength":9072},{"buffer":0,"byteOffset":34992,"byteLength":9072}],"buffers":[{"byteLength":44064,"uri":"data:application/octet-stream;base64,"}]}