{"asset":{"version":"2.0","generator":"city-drive model generator"},"scene":0,"scenes":[{"nodes":[0]}],"nodes":[{"mesh":0,"name":"motel"}],"meshes":[{"name":"motel","primitives":[{"attributes":{"POSITION":0,"NORMAL":1},"material":0,"mode":4},{"attributes":{"POSITION":2,"NORMAL":3},"material":1,"mode":4},{"attributes":{"POSITION":4,"NORMAL":5},"material":2,"mode":4},{"attributes":{"POSITION":6,"NORMAL":7},"material":3,"mode":4},{"attributes":{"POSITION":8,"NORMAL":9},"material":4,"mode":4},{"attributes":{"POSITION":10,"NORMAL":11},"material":5,"mode":4}]}],"materials":[{"name":"wall","pbrMetallicRoughness":{"baseColorFactor":[0.7681511472425809,0.6514056374127929,0.45641102317066595,1],"metallicFactor":0,"roughnessFactor":0.92},"emissiveFactor":[0,0,0],"doubleSided":false},{"name":"roof","pbrMetallicRoughness":{"baseColorFactor":[0.2541520943200296,0.10224173307914941,0.057805430183792694,1],"metallicFactor":0,"roughnessFactor":0.85},"emissiveFactor":[0,0,0],"doubleSided":false},{"name":"door","pbrMetallicRoughness":{"baseColorFactor":[0.10702310296918527,0.05126945836711539,0.02955683443236377,1],"metallicFactor":0,"roughnessFactor":0.8},"emissiveFactor":[0,0,0],"doubleSided":false},{"name":"glass","pbrMetallicRoughness":{"baseColorFactor":[0.34670405634441115,0.6866853124288864,0.8069522576650873,1],"metallicFactor":0,"roughnessFactor":0.2},"emissiveFactor":[0.0030352698352941175,0.018500220124016652,0.02955683443236377],"doubleSided":false},{"name":"trim","pbrMetallicRoughness":{"baseColorFactor":[1,1,1,1],"metallicFactor":0,"roughnessFactor":0.8},"emissiveFactor":[0,0,0],"doubleSided":false},{"name":"sign","pbrMetallicRoughness":{"baseColorFactor":[0.8069522576650873,0.09084171117479915,0.028426039499072558,1],"metallicFactor":0,"roughnessFactor":0.5},"emissiveFactor":[0.04231141061442144,0.004776953478513362,0.0018211619011764706],"doubleSided":false}],"accessors":[{"bufferView":0,"componentType":5126,"count":36,"type":"VEC3","min":[-10,9.536743306171047e-8,-3.25],"max":[10,6.199999809265137,3.25]},{"bufferView":1,"componentType":5126,"count":36,"type":"VEC3"},{"bufferView":2,"componentType":5126,"count":72,"type":"VEC3","min":[-10.399999618530273,6.0747151374816895,-3.284694194793701],"max":[10.399999618530273,7.225285053253174,3.284694194793701]},{"bufferView":3,"componentType":5126,"count":72,"type":"VEC3"},{"bufferView":4,"componentType":5126,"count":432,"type":"VEC3","min":[-8.574999809265137,0.42500001192092896,3.200000047683716],"max":[8.574999809265137,5.675000190734863,3.3399999141693115]},{"bufferView":5,"componentType":5126,"count":432,"type":"VEC3"},{"bufferView":6,"componentType":5126,"count":432,"type":"VEC3","min":[-7,1.4249999523162842,3.2200000286102295],"max":[10,5.574999809265137,3.3399999141693115]},{"bufferView":7,"componentType":5126,"count":432,"type":"VEC3"},{"bufferView":8,"componentType":5126,"count":396,"type":"VEC3","min":[-11.800000190734863,4.7683716530855236e-8,3.25],"max":[9.899999618530273,6.199999809265137,4.849999904632568]},{"bufferView":9,"componentType":5126,"count":396,"type":"VEC3"},{"bufferView":10,"componentType":5126,"count":36,"type":"VEC3","min":[-13.899999618530273,4.25,4.5],"max":[-9.300000190734863,5.75,4.800000190734863]},{"bufferView":11,"componentType":5126,"count":36,"type":"VEC3"}],"bufferViews":[{"buffer":0,"byteOffset":0,"byteLength":432},{"buffer":0,"byteOffset":432,"byteLength":432},{"buffer":0,"byteOffset":864,"byteLength":864},{"buffer":0,"byteOffset":1728,"byteLength":864},{"buffer":0,"byteOffset":2592,"byteLength":5184},{"buffer":0,"byteOffset":7776,"byteLength":5184},{"buffer":0,"byteOffset":12960,"byteLength":5184},{"buffer":0,"byteOffset":18144,"byteLength":5184},{"buffer":0,"byteOffset":23328,"byteLength":4752},{"buffer":0,"byteOffset":28080,"byteLength":4752},{"buffer":0,"byteOffset":32832,"byteLength":432},{"buffer":0,"byteOffset":33264,"byteLength":432}],"buffers":[{"byteLength":33696,"uri":"data:application/octet-stream;base64,"}]}