{"asset":{"version":"2.0","generator":"city-drive model generator"},"scene":0,"scenes":[{"nodes":[0]}],"nodes":[{"mesh":0,"name":"parking"}],"meshes":[{"name":"parking","primitives":[{"attributes":{"POSITION":0,"NORMAL":1},"material":0,"mode":4},{"attributes":{"POSITION":2,"NORMAL":3},"material":1,"mode":4},{"attributes":{"POSITION":4,"NORMAL":5},"material":2,"mode":4}]}],"materials":[{"name":"deck","pbrMetallicRoughness":{"baseColorFactor":[0.3231432091022285,0.3005437944049895,0.26225065751888765,1],"metallicFactor":0,"roughnessFactor":0.92},"emissiveFactor":[0,0,0],"doubleSided":false},{"name":"band","pbrMetallicRoughness":{"baseColorFactor":[0.08865558627723595,0.09989872823822872,0.11443537381770343,1],"metallicFactor":0,"roughnessFactor":0.85},"emissiveFactor":[0,0,0],"doubleSided":false},{"name":"rail","pbrMetallicRoughness":{"baseColorFactor":[0.5775804404214573,0.6038273388475408,0.6444796819634361,1],"metallicFactor":0.4,"roughnessFactor":0.6},"emissiveFactor":[0,0,0],"doubleSided":false}],"accessors":[{"bufferView":0,"componentType":5126,"count":72,"type":"VEC3","min":[-11,0,-8],"max":[11,18,8]},{"bufferView":1,"componentType":5126,"count":72,"type":"VEC3"},{"bufferView":2,"componentType":5126,"count":288,"type":"VEC3","min":[-11.149999618530273,2.6500000953674316,-8.149999618530273],"max":[11.149999618530273,14.350000381469727,8.149999618530273]},{"bufferView":3,"componentType":5126,"count":288,"type":"VEC3"},{"bufferView":4,"componentType":5126,"count":72,"type":"VEC3","min":[-11.300000190734863,14.949999809265137,-8.199999809265137],"max":[11.300000190734863,15.449999809265137,8.199999809265137]},{"bufferView":5,"componentType":5126,"count":72,"type":"VEC3"}],"bufferViews":[{"buffer":0,"byteOffset":0,"byteLength":864},{"buffer":0,"byteOffset":864,"byteLength":864},{"buffer":0,"byteOffset":1728,"byteLength":3456},{"buffer":0,"byteOffset":5184,"byteLength":3456},{"buffer":0,"byteOffset":8640,"byteLength":864},{"buffer":0,"byteOffset":9504,"byteLength":864}],"buffers":[{"byteLength":10368,"uri":"data:application/octet-stream;base64,"}]}