{"asset":{"version":"2.0","generator":"city-drive model generator"},"scene":0,"scenes":[{"nodes":[0]}],"nodes":[{"mesh":0,"name":"pine"}],"meshes":[{"name":"pine","primitives":[{"attributes":{"POSITION":0,"NORMAL":1},"material":0,"mode":4},{"attributes":{"POSITION":2,"NORMAL":3},"material":1,"mode":4},{"attributes":{"POSITION":4,"NORMAL":5},"material":2,"mode":4}]}],"materials":[{"name":"bark","pbrMetallicRoughness":{"baseColorFactor":[0.14702726648767014,0.07818742179702069,0.04231141061442144,1],"metallicFactor":0,"roughnessFactor":1},"emissiveFactor":[0,0,0],"doubleSided":false},{"name":"leaf","pbrMetallicRoughness":{"baseColorFactor":[0.028426039499072558,0.14702726648767014,0.061246054224174035,1],"metallicFactor":0,"roughnessFactor":0.95},"emissiveFactor":[0,0,0],"doubleSided":false},{"name":"leaf2","pbrMetallicRoughness":{"baseColorFactor":[0.04970656597728775,0.2541520943200296,0.09305896283800832,1],"metallicFactor":0,"roughnessFactor":0.95},"emissiveFactor":[0,0,0],"doubleSided":false}],"accessors":[{"bufferView":0,"componentType":5126,"count":96,"type":"VEC3","min":[-0.2199999988079071,-1.1920929132713809e-8,-0.2199999988079071],"max":[0.2199999988079071,1.100000023841858,0.2199999988079071]},{"bufferView":1,"componentType":5126,"count":96,"type":"VEC3"},{"bufferView":2,"componentType":5126,"count":144,"type":"VEC3","min":[-1.5,0.7999999523162842,-1.5],"max":[1.5,5.099999904632568,1.5]},{"bufferView":3,"componentType":5126,"count":144,"type":"VEC3"},{"bufferView":4,"componentType":5126,"count":72,"type":"VEC3","min":[-1.149999976158142,2.200000047683716,-1.149999976158142],"max":[1.149999976158142,4.199999809265137,1.149999976158142]},{"bufferView":5,"componentType":5126,"count":72,"type":"VEC3"}],"bufferViews":[{"buffer":0,"byteOffset":0,"byteLength":1152},{"buffer":0,"byteOffset":1152,"byteLength":1152},{"buffer":0,"byteOffset":2304,"byteLength":1728},{"buffer":0,"byteOffset":4032,"byteLength":1728},{"buffer":0,"byteOffset":5760,"byteLength":864},{"buffer":0,"byteOffset":6624,"byteLength":864}],"buffers":[{"byteLength":7488,"uri":"data:application/octet-stream;base64,"}]}