{"asset":{"version":"2.0","generator":"city-drive model generator"},"scene":0,"scenes":[{"nodes":[0]}],"nodes":[{"mesh":0,"name":"warehouse"}],"meshes":[{"name":"warehouse","primitives":[{"attributes":{"POSITION":0,"NORMAL":1},"material":0,"mode":4},{"attributes":{"POSITION":2,"NORMAL":3},"material":1,"mode":4},{"attributes":{"POSITION":4,"NORMAL":5},"material":2,"mode":4},{"attributes":{"POSITION":6,"NORMAL":7},"material":3,"mode":4}]}],"materials":[{"name":"wall","pbrMetallicRoughness":{"baseColorFactor":[0.48514994004665124,0.5332764040016892,0.5711248294565854,1],"metallicFactor":0.15,"roughnessFactor":0.85},"emissiveFactor":[0,0,0],"doubleSided":false},{"name":"roof","pbrMetallicRoughness":{"baseColorFactor":[0.158960835050774,0.19461783043107173,0.22696587349938613,1],"metallicFactor":0.25,"roughnessFactor":0.8},"emissiveFactor":[0,0,0],"doubleSided":false},{"name":"door","pbrMetallicRoughness":{"baseColorFactor":[0.06847816983662762,0.09084171117479915,0.11697066774917994,1],"metallicFactor":0.3,"roughnessFactor":0.7},"emissiveFactor":[0,0,0],"doubleSided":false},{"name":"trim","pbrMetallicRoughness":{"baseColorFactor":[0.2541520943200296,0.29613827078752575,0.33245153633549385,1],"metallicFactor":0.3,"roughnessFactor":0.7},"emissiveFactor":[0,0,0],"doubleSided":false}],"accessors":[{"bufferView":0,"componentType":5126,"count":36,"type":"VEC3","min":[-6,0,-4],"max":[6,5,4]},{"bufferView":1,"componentType":5126,"count":36,"type":"VEC3"},{"bufferView":2,"componentType":5126,"count":72,"type":"VEC3","min":[-6.25,4.8553690910339355,-4.039773464202881],"max":[6.25,6.244630813598633,4.039773464202881]},{"bufferView":3,"componentType":5126,"count":72,"type":"VEC3"},{"bufferView":4,"componentType":5126,"count":108,"type":"VEC3","min":[-4.400000095367432,-2.3841858265427618e-8,3.940000057220459],"max":[4.400000095367432,3.200000047683716,4.099999904632568]},{"bufferView":5,"componentType":5126,"count":108,"type":"VEC3"},{"bufferView":6,"componentType":5126,"count":276,"type":"VEC3","min":[-6.300000190734863,4.625,-0.3499999940395355],"max":[6.300000190734863,6.75,4.199999809265137]},{"bufferView":7,"componentType":5126,"count":276,"type":"VEC3"}],"bufferViews":[{"buffer":0,"byteOffset":0,"byteLength":432},{"buffer":0,"byteOffset":432,"byteLength":432},{"buffer":0,"byteOffset":864,"byteLength":864},{"buffer":0,"byteOffset":1728,"byteLength":864},{"buffer":0,"byteOffset":2592,"byteLength":1296},{"buffer":0,"byteOffset":3888,"byteLength":1296},{"buffer":0,"byteOffset":5184,"byteLength":3312},{"buffer":0,"byteOffset":8496,"byteLength":3312}],"buffers":[{"byteLength":11808,"uri":"data:application/octet-stream;base64,"}]}